<svg xmlns="http://www.w3.org/2000/svg" width="1000" height="1000">
<g fill="none" stroke="#000" opacity="0.5">
<line x1="500" y1="500" x2="679" y2="520" stroke-width="1.5"/><line x1="500" y1="500" x2="815" y2="557" stroke-width="0.8"/><line x1="500" y1="500" x2="864" y2="611" stroke-width="0.8"/><line x1="500" y1="500" x2="666" y2="571" stroke-width="0.5"/><line x1="500" y1="500" x2="878" y2="682" stroke-width="0.5"/><line x1="500" y1="500" x2="909" y2="752" stroke-width="1.3"/><line x1="500" y1="500" x2="623" y2="586" stroke-width="1.5"/><line x1="500" y1="500" x2="632" y2="622" stroke-width="1"/><line x1="500" y1="500" x2="875" y2="943" stroke-width="1.5"/><line x1="500" y1="500" x2="669" y2="723" stroke-width="0.7"/><line x1="500" y1="500" x2="868" y2="1036" stroke-width="0.8"/><line x1="500" y1="500" x2="789" y2="1003" stroke-width="1.5"/><line x1="500" y1="500" x2="682" y2="944" stroke-width="0.6"/><line x1="500" y1="500" x2="685" y2="1123" stroke-width="0.8"/><line x1="500" y1="500" x2="602" y2="1040" stroke-width="0.7"/><line x1="500" y1="500" x2="539" y2="978" stroke-width="0.8"/><line x1="500" y1="500" x2="517" y2="920" stroke-width="1.5"/><line x1="500" y1="500" x2="452" y2="917" stroke-width="0.8"/><line x1="500" y1="500" x2="363" y2="1187" stroke-width="0.7"/><line x1="500" y1="500" x2="356" y2="1062" stroke-width="1.2"/><line x1="500" y1="500" x2="327" y2="948" stroke-width="0.8"/><line x1="500" y1="500" x2="353" y2="784" stroke-width="1.2"/><line x1="500" y1="500" x2="170" y2="1060" stroke-width="1.5"/><line x1="500" y1="500" x2="151" y2="925" stroke-width="1.2"/><line x1="500" y1="500" x2="298" y2="694" stroke-width="0.5"/><line x1="500" y1="500" x2="363" y2="616" stroke-width="0.7"/><line x1="500" y1="500" x2="296" y2="645" stroke-width="1.2"/><line x1="500" y1="500" x2="366" y2="568" stroke-width="0.7"/><line x1="500" y1="500" x2="-142" y2="779" stroke-width="1.3"/><line x1="500" y1="500" x2="-30" y2="645" stroke-width="0.6"/><line x1="500" y1="500" x2="187" y2="568" stroke-width="1.2"/><line x1="500" y1="500" x2="122" y2="534" stroke-width="1.5"/><line x1="500" y1="500" x2="-150" y2="476" stroke-width="1.3"/><line x1="500" y1="500" x2="182" y2="463" stroke-width="0.6"/><line x1="500" y1="500" x2="322" y2="471" stroke-width="0.8"/><line x1="500" y1="500" x2="187" y2="431" stroke-width="1.3"/><line x1="500" y1="500" x2="-116" y2="293" stroke-width="1.3"/><line x1="500" y1="500" x2="-136" y2="207" stroke-width="1.5"/><line x1="500" y1="500" x2="350" y2="401" stroke-width="0.8"/><line x1="500" y1="500" x2="210" y2="254" stroke-width="1.5"/><line x1="500" y1="500" x2="109" y2="71" stroke-width="0.8"/><line x1="500" y1="500" x2="302" y2="249" stroke-width="0.6"/><line x1="500" y1="500" x2="216" y2="113" stroke-width="1.5"/><line x1="500" y1="500" x2="371" y2="252" stroke-width="1"/><line x1="500" y1="500" x2="407" y2="268" stroke-width="1.5"/><line x1="500" y1="500" x2="408" y2="131" stroke-width="1.2"/><line x1="500" y1="500" x2="447" y2="225" stroke-width="1"/><line x1="500" y1="500" x2="475" y2="221" stroke-width="0.5"/><line x1="500" y1="500" x2="513" y2="-200" stroke-width="0.5"/><line x1="500" y1="500" x2="539" y2="-79" stroke-width="1.5"/><line x1="500" y1="500" x2="555" y2="84" stroke-width="0.8"/><line x1="500" y1="500" x2="623" y2="-189" stroke-width="0.8"/><line x1="500" y1="500" x2="623" y2="141" stroke-width="1"/><line x1="500" y1="500" x2="760" y2="-150" stroke-width="1"/><line x1="500" y1="500" x2="565" y2="365" stroke-width="1.3"/><line x1="500" y1="500" x2="715" y2="187" stroke-width="1.2"/><line x1="500" y1="500" x2="930" y2="13" stroke-width="0.7"/><line x1="500" y1="500" x2="776" y2="238" stroke-width="0.6"/><line x1="500" y1="500" x2="819" y2="226" stroke-width="0.8"/><line x1="500" y1="500" x2="621" y2="411" stroke-width="1.2"/><line x1="500" y1="500" x2="656" y2="410" stroke-width="0.8"/><line x1="500" y1="500" x2="665" y2="429" stroke-width="1.2"/><line x1="500" y1="500" x2="668" y2="436" stroke-width="0.7"/><line x1="500" y1="500" x2="899" y2="368" stroke-width="1.5"/><line x1="500" y1="500" x2="911" y2="416" stroke-width="1"/><line x1="500" y1="500" x2="650" y2="488" stroke-width="0.6"/><line x1="500" y1="500" x2="1200" y2="490" stroke-width="1.3"/>
</g>
</svg>