<svg xmlns="http://www.w3.org/2000/svg" viewBox="0 0 24 24" fill="none" stroke="#FFFFFF" stroke-width="2.5" stroke-linecap="round" stroke-linejoin="round">
  <!-- comic octocat body -->
  <path d="M12 2C6.5 2 2 6.5 2 12c0 4.4 2.9 8.2 6.8 9.5.5.1.7-.2.7-.5v-1.7c-2.8.6-3.4-1.4-3.4-1.4-.4-1.1-1.1-1.4-1.1-1.4-.9-.6.1-.6.1-.6 1 .1 1.5 1 1.5 1 .9 1.5 2.3 1.1 2.8.8.1-.6.3-1.1.6-1.3-2.2-.3-4.6-1.1-4.6-5 0-1.1.4-2 1-2.7-.1-.2-.4-1.3.1-2.6 0 0 .8-.3 2.7 1a9.4 9.4 0 0 1 5 0c1.9-1.3 2.7-1 2.7-1 .5 1.3.2 2.4.1 2.6.6.7 1 1.6 1 2.7 0 3.9-2.4 4.7-4.6 5 .4.3.7.9.7 1.9v2.8c0 .3.2.6.7.5A10 10 0 0 0 22 12c0-5.5-4.5-10-10-10z" fill="#FFFFFF" stroke="none"/>
</svg>
